<svg width="225" height="225" viewBox="0 0 225 225" fill="none" xmlns="http://www.w3.org/2000/svg">
<circle cx="112.5" cy="112.5" r="112.5" fill="#7448BA"/>
<path d="M126.349 82.1357C126.349 74.3994 120.136 68.1052 112.499 68.1052L106.342 82.1357L112.499 96.1661C120.136 96.1661 126.349 89.8723 126.349 82.1357Z" fill="#BABABA"/>
<path d="M98.6501 82.1355C98.6501 89.8718 104.863 96.1656 112.5 96.1656V68.105C104.863 68.105 98.6501 74.3992 98.6501 82.1355Z" fill="#F4F4F4"/>
<path d="M77.7389 63.6984V36.1639H68.5104V66.5909L86.6595 93.458L60.5726 81.6606H33.7496V91.0093H58.6063L87.5048 104.078L53.7448 116.816V195.714H62.9733V123.31L101.299 108.85L103.497 101.83L77.7389 63.6984Z" fill="#F4F4F4"/>
<path d="M191.249 91.0093V81.6606H164.426L138.339 93.458L156.488 66.5909V36.1639H147.259V63.6984L121.502 101.83L123.699 108.85L162.025 123.31V195.714H171.254V116.816L137.494 104.078L166.392 91.0093H191.249Z" fill="#BABABA"/>
<path d="M135.043 122.077C131.106 116.251 124.594 112.773 117.625 112.773H112.499L106.342 133.91L112.499 168.915C121.277 168.915 129.001 163.558 132.177 155.269L137.302 141.893C139.824 135.311 138.98 127.903 135.043 122.077Z" fill="#BABABA"/>
<path d="M107.374 112.773C100.404 112.773 93.8926 116.251 89.9554 122.077C86.0185 127.903 85.1741 135.311 87.696 141.893L92.8215 155.269C95.9973 163.559 103.722 168.915 112.499 168.915V112.773H107.374Z" fill="#F4F4F4"/>
<path d="M112.499 86.8175L106.342 104.47L112.499 122.121C122.107 122.121 129.924 114.203 129.924 104.469C129.924 94.7358 122.107 86.8175 112.499 86.8175Z" fill="#F4F4F4"/>
<path d="M95.0751 104.469C95.0751 114.202 102.892 122.121 112.5 122.121V86.8175C102.892 86.8175 95.0751 94.7361 95.0751 104.469Z" fill="#C7C7C7"/>
</svg>
